<svg id="Ebene_1" data-name="Ebene 1" xmlns="http://www.w3.org/2000/svg" viewBox="0 0 2036.54 523.37"><defs><style>.cls-1{fill:#626873;}.cls-2{fill:#6ec800;}.cls-3{opacity:0.3;}.cls-4{fill:#fff;}</style></defs><title>MM-643_Sublogo_WAGO_Stiftung_RGB</title><path class="cls-1" d="M900.23,711.42q4.86,24.33,21,35.11t48,10.8q16.41,0,27.21-3.65t17.17-9.73a34.49,34.49,0,0,0,9.12-14.29,54.27,54.27,0,0,0,2.74-17.33,60.91,60.91,0,0,0-1.67-14.44,30.56,30.56,0,0,0-6.39-12.46q-4.71-5.62-13.52-9.88t-23.11-6.69l-27-4.56a179.85,179.85,0,0,1-28.12-7,68.83,68.83,0,0,1-20.83-11.1A43.63,43.63,0,0,1,891.87,629q-4.41-10.34-4.41-25.23T893.7,578a53.71,53.71,0,0,1,16.72-18.09A75.57,75.57,0,0,1,935,549.24a124.32,124.32,0,0,1,29.94-3.5q20.37,0,34,4.41t22.5,11.7a54.42,54.42,0,0,1,13.68,16.57,101.57,101.57,0,0,1,7.6,18.7l-17,4.86a96.14,96.14,0,0,0-7.14-16.87,39.9,39.9,0,0,0-10.94-12.62,49,49,0,0,0-17.18-7.9q-10.34-2.73-25.23-2.74-16.72,0-28,3.2t-18.24,8.81a32,32,0,0,0-10,13.38,44.91,44.91,0,0,0-3,16.57,51.9,51.9,0,0,0,2.13,15.8,26.65,26.65,0,0,0,7.29,11.56,42,42,0,0,0,13.83,8.2A123.79,123.79,0,0,0,951,645.15l30.7,5.47a148.34,148.34,0,0,1,28.43,7.91A63.25,63.25,0,0,1,1030,670.84a45.78,45.78,0,0,1,11.7,17.78q3.81,10.33,3.8,24.32a58.05,58.05,0,0,1-4.86,23.56,53.57,53.57,0,0,1-14.44,19.31,71.71,71.71,0,0,1-23.86,13.07q-14.29,4.86-33.44,4.86a150.67,150.67,0,0,1-32.69-3.34,79.46,79.46,0,0,1-26.44-10.79,60.87,60.87,0,0,1-18.7-19.31q-7.29-11.85-9.12-28.88Z" transform="translate(-256 -250.37)"/><path class="cls-1" d="M1144,568.24h-75.39v-17h169v17h-75.09v200H1144Z" transform="translate(-256 -250.37)"/><path class="cls-1" d="M1270.81,551.21h18.54V768.27h-18.54Z" transform="translate(-256 -250.37)"/><path class="cls-1" d="M1342.24,551.21h130.42v16.72H1360.79v82.39h104.88v17.33H1360.79V768.27h-18.55Z" transform="translate(-256 -250.37)"/><path class="cls-1" d="M1572.06,568.24h-75.39v-17h169v17h-75.09v200h-18.55Z" transform="translate(-256 -250.37)"/><path class="cls-1" d="M1697.31,551.21h18.55V683.45q0,36.79,14.28,55.33t47.12,18.55q16.73,0,28.12-4.72a44.3,44.3,0,0,0,18.55-14q7.14-9.27,10.33-23.1a143.56,143.56,0,0,0,3.2-32.08V551.21H1856V683.15q0,24-5.32,41.19t-15.5,28.12a61,61,0,0,1-24.93,16.11q-14.74,5.17-33.29,5.17-19.15,0-33.9-5.17a60.15,60.15,0,0,1-24.92-16.26q-10.2-11.1-15.51-28.58t-5.32-41.8Z" transform="translate(-256 -250.37)"/><path class="cls-1" d="M1907.37,551.21h20.37l121.6,187.88V551.21h17.94V768.27h-20.07l-121.9-188.48V768.27h-17.94Z" transform="translate(-256 -250.37)"/><path class="cls-1" d="M2212.89,661h79.65v83.9a84.35,84.35,0,0,1-17.79,13.07,120.4,120.4,0,0,1-20.36,9,130.29,130.29,0,0,1-21.44,5.17,141.4,141.4,0,0,1-21.28,1.67q-23.1,0-41.49-7.45a83.31,83.31,0,0,1-31.31-21.88q-12.93-14.45-19.76-35.57t-6.84-48.49q0-28,7.44-49.4t20.37-35.87a84.88,84.88,0,0,1,30.55-21.89,96.75,96.75,0,0,1,38-7.45q34,0,53,15.66T2288,605l-17.33,4a97.47,97.47,0,0,0-7.75-19,52.39,52.39,0,0,0-12-14.89,52.93,52.93,0,0,0-17.63-9.73q-10.34-3.5-24.63-3.5-18.84,0-33.28,7.3a67.89,67.89,0,0,0-24.17,20.37,93.57,93.57,0,0,0-14.75,31,145.41,145.41,0,0,0-5,39.21,149.21,149.21,0,0,0,4.86,39.37,88.3,88.3,0,0,0,14.9,30.86,67.84,67.84,0,0,0,25.08,20.21q15,7.16,35.41,7.15a123,123,0,0,0,33.9-4.72,87.29,87.29,0,0,0,29.34-14.44V677.68h-62Z" transform="translate(-256 -250.37)"/><path class="cls-2" d="M1076.35,482.41,1043.7,337.54l-32,144.87H951.45L890.9,256.07h64.67l29.16,147.72,31.7-146.13h56.11l32.34,146.13,28.21-147.72h62.77l-58.65,226.34Z" transform="translate(-256 -250.37)"/><path class="cls-2" d="M1335,482.41,1322,439h-76.4l-12.68,43.43h-61.18l78.62-226.34h69.1l78.62,226.34ZM1284,312.5l-23.46,78h46.6Z" transform="translate(-256 -250.37)"/><path class="cls-2" d="M1545.51,402.21h-36.14V353.08h92.24v103a139.71,139.71,0,0,1-44.53,23.78,167.84,167.84,0,0,1-52.47,8.24q-53.25,0-82.1-30.59t-28.85-87q0-38,13.32-65.14t38-41.06q24.72-13.94,58.64-13.94,39.94,0,64.83,19.33t30.59,54.21l-60.87,6q-3.48-14.56-11.88-21.39t-23.3-6.82q-23.46,0-34.87,16.64t-11.41,50.57q0,35.51,12.68,51.67T1510,436.76q20,0,35.51-8.24Z" transform="translate(-256 -250.37)"/><path class="cls-2" d="M1732.85,488.12q-34.87,0-59.76-14.27a93,93,0,0,1-37.88-40.73q-13-26.47-13-62.93,0-56.42,29.79-88.12t82.42-31.7q34.88,0,59.76,14.26a93.06,93.06,0,0,1,37.88,40.74q13,26.46,13,62.92,0,56.43-29.8,88.13T1732.85,488.12Zm.63-52.31q24.09,0,36.3-16.8t12.2-49.77q0-66.57-48.18-66.57-24.09,0-36.3,16.8t-12.2,49.77q0,33,12.2,49.77T1733.48,435.81Z" transform="translate(-256 -250.37)"/><rect class="cls-2" y="5.47" width="512" height="512" rx="65.83"/><path class="cls-3" d="M768,468.41,629.26,329.68,367.56,767.84H702.17A66,66,0,0,0,768,702Z" transform="translate(-256 -250.37)"/><path class="cls-4" d="M629.26,329.68,372.91,449.44h79l-186.09,287a65.94,65.94,0,0,0,56,31.41H446.21l206.68-318.4H707Z" transform="translate(-256 -250.37)"/></svg>